<svg width="56" height="56" viewBox="0 0 56 56" fill="none" xmlns="http://www.w3.org/2000/svg">
<g clip-path="url(#clip0_399_2084)">
<path d="M25.5267 18.9465L17.4534 10.8732L19.6 8.51652C20.4867 7.55986 21.7467 6.99986 23.0534 6.99986H32.9467C34.2534 6.99986 35.5134 7.55986 36.3767 8.51652L39.27 11.6665H46.6667C49.2334 11.6665 51.3334 13.7665 51.3334 16.3332V44.3332C51.3334 44.4499 51.31 44.5665 51.2867 44.7065L39.3867 32.8065C39.5734 31.9899 39.6667 31.1732 39.6667 30.3332C39.6667 23.8932 34.44 18.6665 28 18.6665C27.16 18.6665 26.3434 18.7599 25.5267 18.9465ZM46.1534 52.7565L42.3967 48.9999H9.33335C6.76669 48.9999 4.66669 46.8999 4.66669 44.3332V16.3332C4.66669 14.9565 5.29669 13.7199 6.25335 12.8565L3.24335 9.84652C2.33335 8.93652 2.33335 7.46652 3.24335 6.55652C4.15335 5.64652 5.62335 5.64652 6.53335 6.55652L49.42 49.4432C50.33 50.3532 50.33 51.8232 49.42 52.7332C48.5334 53.6665 47.0634 53.6665 46.1534 52.7565ZM33.81 40.4132L30.31 36.9132C29.5634 37.1465 28.8167 37.3332 28 37.3332C24.1267 37.3332 21 34.2065 21 30.3332C21 29.5165 21.1867 28.7699 21.4434 28.0465L17.9434 24.5465C16.9167 26.2265 16.3334 28.2099 16.3334 30.3332C16.3334 36.7732 21.56 41.9999 28 41.9999C30.1234 41.9999 32.1067 41.4165 33.81 40.4132Z" fill="#F8FAFC"/>
</g>
<defs>
<clipPath id="clip0_399_2084">
<rect width="56" height="56" fill="white"/>
</clipPath>
</defs>
</svg>
